<?xml version="1.0" encoding="utf-8"?>
<!-- Generator: Adobe Illustrator 23.0.1, SVG Export Plug-In . SVG Version: 6.00 Build 0)  -->
<svg version="1.1" id="Шар_1" xmlns="http://www.w3.org/2000/svg" xmlns:xlink="http://www.w3.org/1999/xlink" x="0px" y="0px"
	 viewBox="0 0 100 100" style="enable-background:new 0 0 100 100;" xml:space="preserve">
<style type="text/css">
	.st0{fill:#A4CB6A;}
	.st1{fill:#FFFFFF;}
	.st2{fill:#42692C;}
	.st3{fill:#D76262;}
	.st4{fill:#AF2A28;}
</style>
<g>
	<path class="st0" d="M77.2,31.7c0.9-1.6,1.4-3.3,1.4-5.2c0-5.9-4.8-10.7-10.7-10.7c-4.9,0-9,3.3-10.3,7.7c-2.5-0.4-5-0.6-7.6-0.6
		c-2.9,0-5.7,0.3-8.4,0.7c-1.3-4.4-5.4-7.7-10.3-7.7c-5.9,0-10.7,4.8-10.7,10.7c0,2,0.6,3.9,1.6,5.6c-6.7,5.5-10.9,13-10.9,21.3
		c0,17,17.3,30.7,38.7,30.7c21.4,0,38.7-13.7,38.7-30.7C88.7,45,84.3,37.3,77.2,31.7z"/>
	<g>
		<path class="st1" d="M59.9,26.1c0-4.5,3.7-8.2,8.2-8.2s8.2,3.7,8.2,8.2c0,4.5-3.7,8.2-8.2,8.2S59.9,30.7,59.9,26.1z"/>
		<g>
			<path class="st2" d="M62.3,26.1c0-3.1,2.5-5.6,5.6-5.6c3.1,0,5.6,2.5,5.6,5.6c0,3.1-2.5,5.6-5.6,5.6
				C64.8,31.7,62.3,29.2,62.3,26.1z"/>
			<path class="st1" d="M63,28.8c0-1.1,0.9-2.1,2.1-2.1c1.1,0,2.1,0.9,2.1,2.1c0,1.1-0.9,2.1-2.1,2.1C63.9,30.9,63,29.9,63,28.8z"/>
			<path class="st1" d="M62,25.1c0-0.7,0.6-1.3,1.3-1.3c0.7,0,1.3,0.6,1.3,1.3c0,0.7-0.6,1.3-1.3,1.3C62.6,26.5,62,25.9,62,25.1z"/>
		</g>
	</g>
	<g>
		<path class="st1" d="M23,26.5c0-4.5,3.7-8.2,8.2-8.2s8.2,3.7,8.2,8.2s-3.7,8.2-8.2,8.2S23,31,23,26.5z"/>
		<g>
			<path class="st2" d="M25.4,26.5c0-3.1,2.5-5.6,5.6-5.6c3.1,0,5.6,2.5,5.6,5.6c0,3.1-2.5,5.6-5.6,5.6
				C27.9,32.1,25.4,29.6,25.4,26.5z"/>
			<path class="st1" d="M26.1,29.2c0-1.1,0.9-2.1,2.1-2.1c1.1,0,2.1,0.9,2.1,2.1c0,1.1-0.9,2.1-2.1,2.1C27,31.2,26.1,30.3,26.1,29.2
				z"/>
			<circle class="st1" cx="26.5" cy="25.5" r="1.3"/>
		</g>
	</g>
	<g>
		<path class="st3" d="M40,34.5c-0.2,0.8-0.3,1.6-0.3,2.5c0,5.7,4.6,10.3,10.3,10.3c5.7,0,10.3-4.6,10.3-10.3c0-0.8-0.1-1.7-0.3-2.5
			H40z"/>
		<path class="st4" d="M48.3,41.8c-0.4,0-1,0.2-1.4,0.3c-0.6-0.4-1-0.7-1.8-0.7c-1.4,0-2.6,0.8-3.2,2c1.9,2.3,4.8,3.8,8,3.8
			c0.5,0,1.7-0.2,2.2-0.2C52.5,46.5,51.2,41.8,48.3,41.8z"/>
	</g>
</g>
</svg>
