<?xml version="1.0" encoding="utf-8"?>
<!-- Generator: Adobe Illustrator 23.0.1, SVG Export Plug-In . SVG Version: 6.00 Build 0)  -->
<svg version="1.1" id="Шар_1" xmlns="http://www.w3.org/2000/svg" xmlns:xlink="http://www.w3.org/1999/xlink" x="0px" y="0px"
	 viewBox="0 0 100 100" style="enable-background:new 0 0 100 100;" xml:space="preserve">
<style type="text/css">
	.st0{fill:#A4CB6A;}
	.st1{fill:#FFFFFF;}
	.st2{fill:#42692C;}
	.st3{opacity:0.6;}
	.st4{fill:#537732;}
	.st5{fill:#FACFCA;}
</style>
<g>
	<path class="st0" d="M77.7,31.4c0.9-1.6,1.4-3.4,1.4-5.3c0-6-4.9-10.9-10.9-10.9c-5,0-9.1,3.3-10.5,7.8c-2.5-0.4-5.1-0.6-7.7-0.6
		c-2.9,0-5.8,0.3-8.6,0.7c-1.3-4.5-5.5-7.8-10.4-7.8c-6,0-10.9,4.9-10.9,10.9c0,2.1,0.6,4,1.6,5.7c-6.9,5.6-11.1,13.3-11.1,21.7
		c0,17.2,17.6,31.2,39.4,31.2c21.8,0,39.4-14,39.4-31.2C89.4,44.9,84.9,37.1,77.7,31.4z"/>
	<g>
		<path class="st1" d="M76.7,25.8c0,4.6-3.8,8.4-8.4,8.4c-4.6,0-8.4-3.8-8.4-8.4c0-4.6,3.8-8.4,8.4-8.4C73,17.5,76.7,21.2,76.7,25.8
			z"/>
		<g>
			<path class="st2" d="M74.3,25.8c0,3.2-2.6,5.7-5.7,5.7c-3.2,0-5.7-2.6-5.7-5.7c0-3.2,2.6-5.7,5.7-5.7
				C71.7,20.1,74.3,22.7,74.3,25.8z"/>
			<path class="st1" d="M73.6,23.1c0,1.2-0.9,2.1-2.1,2.1c-1.2,0-2.1-0.9-2.1-2.1c0-1.2,0.9-2.1,2.1-2.1
				C72.6,21,73.6,21.9,73.6,23.1z"/>
			<path class="st1" d="M74.6,26.8c0,0.8-0.6,1.4-1.4,1.4c-0.8,0-1.4-0.6-1.4-1.4c0-0.8,0.6-1.4,1.4-1.4
				C74,25.5,74.6,26.1,74.6,26.8z"/>
		</g>
	</g>
	<g>
		<path class="st1" d="M39.4,26.3c0,4.6-3.8,8.4-8.4,8.4c-4.6,0-8.4-3.8-8.4-8.4c0-4.6,3.8-8.4,8.4-8.4
			C35.6,17.9,39.4,21.7,39.4,26.3z"/>
		<g>
			<path class="st2" d="M36.9,26.3c0,3.2-2.6,5.7-5.7,5.7c-3.2,0-5.7-2.6-5.7-5.7c0-3.2,2.6-5.7,5.7-5.7
				C34.4,20.6,36.9,23.1,36.9,26.3z"/>
			<path class="st1" d="M36.2,23.6c0,1.2-0.9,2.1-2.1,2.1c-1.2,0-2.1-0.9-2.1-2.1c0-1.2,0.9-2.1,2.1-2.1
				C35.3,21.4,36.2,22.4,36.2,23.6z"/>
			<path class="st1" d="M37.2,27.3c0,0.8-0.6,1.4-1.4,1.4c-0.8,0-1.4-0.6-1.4-1.4c0-0.8,0.6-1.4,1.4-1.4
				C36.6,25.9,37.2,26.5,37.2,27.3z"/>
		</g>
	</g>
	<g class="st3">
		<path class="st4" d="M54.2,45c-0.2,0-0.4-0.1-0.6-0.3c-0.3-0.3-0.3-0.9,0.1-1.2l2-1.9c-0.9-0.9-1.7-2.2-1-3.4
			c0.3-0.5,0.6-0.8,0.8-1.1L53,35.7c-0.4-0.2-0.5-0.7-0.3-1.1c0.2-0.4,0.7-0.5,1.1-0.3l3.8,2.2c0.3,0.2,0.5,0.5,0.4,0.9
			c-0.1,0.3-0.3,0.6-0.7,0.7c0,0-0.6,0.2-1.2,1.1c-0.3,0.5,0.7,1.4,1.3,1.8c0.2,0.1,0.3,0.4,0.4,0.6c0,0.2-0.1,0.5-0.3,0.7l-2.7,2.5
			C54.6,44.9,54.4,45,54.2,45z"/>
	</g>
	<path class="st5" d="M27.5,38.9c0,1.7-1.4,3-3.2,3c-1.8,0-3.2-1.3-3.2-3c0-1.7,1.4-3,3.2-3C26,35.9,27.5,37.2,27.5,38.9z"/>
	<path class="st5" d="M78.3,38.9c0,1.7-1.4,3-3.2,3c-1.8,0-3.2-1.3-3.2-3c0-1.7,1.4-3,3.2-3C76.8,35.9,78.3,37.2,78.3,38.9z"/>
</g>
</svg>
