<?xml version="1.0" encoding="utf-8"?>
<!-- Generator: Adobe Illustrator 23.0.1, SVG Export Plug-In . SVG Version: 6.00 Build 0)  -->
<svg version="1.1" id="Шар_1" xmlns="http://www.w3.org/2000/svg" xmlns:xlink="http://www.w3.org/1999/xlink" x="0px" y="0px"
	 viewBox="0 0 100 100" style="enable-background:new 0 0 100 100;" xml:space="preserve">
<style type="text/css">
	.st0{fill:#A4CB6A;}
	.st1{fill:#C64847;}
	.st2{fill:#BA3B3B;}
	.st3{opacity:0.3;fill:#537732;}
	.st4{fill:#FFFFFF;}
	.st5{fill:#FACFCA;}
</style>
<g>
	<path class="st0" d="M75.1,35.1c0.8-1.5,1.3-3.3,1.3-5.1c0-5.8-4.7-10.4-10.4-10.4c-4.7,0-8.8,3.2-10,7.5c-2.4-0.4-4.9-0.6-7.4-0.6
		c-2.8,0-5.6,0.2-8.2,0.7c-1.3-4.3-5.3-7.5-10-7.5c-5.8,0-10.4,4.7-10.4,10.4c0,2,0.6,3.8,1.5,5.4c-6.6,5.4-10.6,12.7-10.6,20.8
		c0,16.5,16.9,29.9,37.8,29.9c20.9,0,37.8-13.4,37.8-29.9C86.4,48,82.1,40.5,75.1,35.1z"/>
	<g>
		<g>
			<path class="st1" d="M65.4,23c1.2,0.5,2,1.4,2.4,2.6c1.1-0.6,2.4-0.7,3.5-0.3c2.2,0.9,3.7,2.9,2.3,6.3c-1.5,3.7-9,5.4-10.2,5
				c-1.2-0.4-5.3-6.5-3.9-10.6C60.6,22.9,63.2,22.1,65.4,23z"/>
		</g>
		<path class="st2" d="M71.2,26.2c1.6,0.6,2.5,2.5,1.8,4.2c-0.1,0.4-0.4,0.7-0.6,1c0.3-1,0.3-2.2-0.3-3.4c-0.4-0.8-0.9-1.5-1.5-1.9
			C70.8,26.1,71,26.1,71.2,26.2z"/>
	</g>
	<g>
		<g>
			<path class="st1" d="M30.9,23c-1.2,0.5-2,1.4-2.4,2.6c-1.1-0.6-2.4-0.7-3.5-0.3c-2.2,0.9-3.7,2.9-2.3,6.3c1.5,3.7,9,5.4,10.2,5
				c1.2-0.4,5.3-6.5,3.9-10.6C35.7,22.9,33.1,22.1,30.9,23z"/>
		</g>
		<path class="st2" d="M25.1,26.2c-1.6,0.6-2.5,2.5-1.8,4.2c0.1,0.4,0.4,0.7,0.6,1c-0.3-1-0.3-2.2,0.3-3.4c0.4-0.8,0.9-1.5,1.5-1.9
			C25.5,26.1,25.3,26.1,25.1,26.2z"/>
	</g>
	<g>
		<path class="st3" d="M39.5,43.5c-0.2,0.8-0.3,1.6-0.3,2.5c0,5.2,4.2,9.4,9.4,9.4c5.2,0,9.4-4.2,9.4-9.4c0-0.9-0.1-1.7-0.3-2.5
			H39.5z"/>
		<path class="st4" d="M39.5,43.5c-0.2,0.7-0.3,1.5-0.3,2.3c0,4.9,4,8.8,8.8,8.8s8.8-4,8.8-8.8c0-0.8-0.1-1.6-0.3-2.3H39.5z"/>
	</g>
	<path class="st5" d="M32.5,41.4c0,1.6-1.7,2.9-3.8,2.9c-2.1,0-3.8-1.3-3.8-2.9c0-1.6,1.7-2.9,3.8-2.9
		C30.8,38.5,32.5,39.8,32.5,41.4z"/>
	<path class="st5" d="M71.9,41.4c0,1.6-1.7,2.9-3.8,2.9c-2.1,0-3.8-1.3-3.8-2.9c0-1.6,1.7-2.9,3.8-2.9
		C70.2,38.5,71.9,39.8,71.9,41.4z"/>
</g>
</svg>
